<svg version="1.1" id="Layer_1" xmlns="http://www.w3.org/2000/svg" xmlns:xlink="http://www.w3.org/1999/xlink" x="0px" y="0px" width="258.331px" height="160.102px" viewBox="0 0 258.331 160.102" enable-background="new 0 0 258.331 160.102" xml:space="preserve" style="fill:#2d2d2d;">
                <path d="M39.257,21.16c-0.176,6.076-1.057,11.449-2.466,16.205c2.554-1.321,4.756-3.083,6.077-4.844L61.804,53.57
                    c-4.58,2.114-9.335,6.166-13.387,10.305L34.677,42.826c-5.637,11.802-16.382,18.76-32.675,21.666l-1.585-1.409
                    C15.83,56.037,22.083,45.82,22.523,21.16H6.229v-6.166c6.518,0.969,15.853,1.321,22.371,1.321h4.228
                    c6.518,0,16.91-0.353,23.516-1.321v6.166H39.257z M15.037,69.952c5.021,0.793,11.626,0.793,16.734,0v18.937h50.995v4.844H15.037
                    V69.952z M64.27,74.885V11.824c5.196,0.792,11.714,0.881,16.734,0v63.061H64.27z"></path>
                <path d="M89.113,61.409h85.431v4.845h-16.557v28.976h-16.734V66.254h-18.76v28.888h-16.734V66.254H89.113V61.409z M96.335,33.138
                    c0-15.413,17.439-20.345,35.142-20.345h0.705c17.703,0,35.142,4.932,35.142,20.345v0.704c0,15.413-17.439,20.346-35.142,20.346
                    h-0.705c-17.703,0-35.142-4.933-35.142-20.346V33.138z M112.893,33.842c0,11.186,8.279,16.03,18.583,16.03h0.705
                    c10.305,0,18.583-4.668,18.583-16.03v-0.704c0-11.273-8.279-16.029-18.583-16.029h-0.705c-10.305,0-18.583,4.844-18.583,16.029
                    V33.842z"></path>
                <path d="M209.78,42.209c-5.196,10.657-15.061,17.438-31.707,21.227l-1.057-1.762c16.91-8.104,20.874-20.962,21.139-41.924h-16.822
                    v-6.165c6.605,0.881,16.646,1.321,23.251,1.321h3.787c6.518,0,16.646-0.44,23.163-1.321v6.165h-16.822
                    c-0.264,6.166-1.057,11.714-2.554,16.559c1.85-1.321,3.347-2.818,4.757-4.58l19.992,19.641c-4.668,2.29-8.631,5.813-12.418,10.305
                    L209.78,42.209z M258.31,80.521c0,8.103-9.513,14.532-32.412,14.532h-1.057c-22.898,0-32.411-6.43-32.411-14.532v-0.881
                    c0-8.103,9.513-14.532,32.411-14.532h1.057c22.899,0,32.412,6.43,32.412,14.532V80.521z M207.402,80.521
                    c0,6.341,6.605,9.952,17.438,9.952h1.057c10.834,0,17.439-3.611,17.439-9.952v-0.881c0-6.342-6.605-9.952-17.439-9.952h-1.057
                    c-10.833,0-17.438,3.61-17.438,9.952V80.521z M239.726,31.023V11.824c4.668,1.232,11.979,1.145,16.734,0v50.29h-16.734V35.868
                    h-11.361v-4.845H239.726z"></path>
                <rect x="0.409" y="105.563" width="257.922" height="1.966"></rect>
                <rect x="0.409" y="158.14" width="257.922" height="1.962"></rect>
                <rect width="257.922" height="1.966"></rect>
                <path d="M30.48,126.143c0,6.446-5.205,9.81-12.292,9.81h-7.728v12.973H2.854v-32.552c2.402,0.28,4.604,0.4,7.127,0.4h1.361
                    c2.362,0,5.165-0.4,7.167-0.4C25.275,116.373,30.48,119.576,30.48,126.143z M13.784,133.75c4.524,0,9.089-0.641,9.089-7.647
                    c0-6.967-4.524-7.127-9.169-7.127h-3.243v14.774H13.784z"></path>
                <path d="M32.918,132.549c0-13.493,6.767-16.937,15.255-16.937c8.528,0,15.215,3.443,15.215,16.937s-5.846,16.896-15.215,16.896
                    S32.918,146.042,32.918,132.549z M55.82,132.629c0-9.81-1.281-14.814-7.647-14.814s-7.647,5.005-7.647,14.814 
                    s1.281,14.614,7.647,14.614S55.82,142.438,55.82,132.629z"></path>
                <path d="M89.168,133.47c1.842,0.761,3.083,2.322,4.004,4.725c1.481,3.884,2.082,7.968,5.085,10.73H90.85
                    c-2.202-1.121-3.083-4.084-3.804-6.486c-1.521-5.045-2.723-7.647-6.887-7.928h-4.965l-0.04,14.414h-7.808v-32.592
                    c2.282,0.4,4.484,0.4,6.967,0.4h1.762c2.322,0,4.765-0.4,6.727-0.4c6.606,0,12.212,2.723,12.172,9.049
                    C94.934,129.466,92.972,132.148,89.168,133.47z M78.958,132.309c4.444,0,8.408-0.521,8.408-6.767c0-6.526-4.685-6.606-9.249-6.606
                    h-3.043v13.373H78.958z"></path>
                <path d="M124.599,119.296h-10.41v29.629h-7.607v-29.629h-10.33v-3.003c2.322,0.24,6.887,0.601,9.209,0.601h10.21
                    c2.603,0,6.927-0.36,8.929-0.601V119.296z"></path>
                <path d="M150.74,119.216h-15.495v12.132h13.293v2.202h-13.293v15.375h-7.567v-32.552c2.322,0.24,7.808,0.601,10.13,0.601h3.363
                    c2.603,0,7.567-0.36,9.569-0.601V119.216z"></path>
                <path d="M152.458,132.549c0-13.493,6.766-16.937,15.254-16.937c8.529,0,15.215,3.443,15.215,16.937s-5.846,16.896-15.215,16.896 S152.458,146.042,152.458,132.549z M175.36,132.629c0-9.81-1.281-14.814-7.648-14.814c-6.365,0-7.646,5.005-7.646,14.814 s1.281,14.614,7.646,14.614C174.079,147.243,175.36,142.438,175.36,132.629z"></path>
                <path d="M187.206,116.373c2.123,0.521,5.486,0.561,7.607,0v30.35h15.455v2.202h-23.063V116.373z"></path>
                <path d="M214.829,116.333c2.123,0.521,5.445,0.561,7.568,0v32.592h-7.568V116.333z"></path>
                <path d="M226.479,132.549c0-13.493,6.767-16.937,15.255-16.937c8.528,0,15.215,3.443,15.215,16.937s-5.846,16.896-15.215,16.896 S226.479,146.042,226.479,132.549z M249.381,132.629c0-9.81-1.281-14.814-7.647-14.814s-7.647,5.005-7.647,14.814 s1.281,14.614,7.647,14.614S249.381,142.438,249.381,132.629z"></path>
                </svg>